# xmcd
#
# Track frame offsets:
#	180
#	19579
#	32013
#	49268
#	63425
#	78860
#	92520
#	111481
#	128322
#	142783
#	156373
#	170196
#
# Disc length: 2646 seconds
#
# Revision: 1
# Processed by: cddbd v1.5.1PL0 Copyright (c) Steve Scherf et al.
# Submitted via: audiograbber 1.83.01
#
DISCID=930a540c
DTITLE=Sylvie Ray - A Little Love
DYEAR=2001
DGENRE=Country
TTITLE0=Happy Honky Tonk Hunting Ground
TTITLE1=Walking In The Sunshine
TTITLE2=Sun Goes Down Blues
TTITLE3=Marie Laveau
TTITLE4=I Feel Lucky
TTITLE5=If Your Heart Ain´t Busy Tonight
TTITLE6=Ev´ry Breath You Take
TTITLE7=Shut Up And Kiss Me
TTITLE8=Jealous Bone
TTITLE9=Ein Bisschen Liebe
TTITLE10=Country Fever
TTITLE11=Gib Die Hoffnung Nicht Auf
EXTD=
EXTT0=
EXTT1=
EXTT2=
EXTT3=
EXTT4=
EXTT5=
EXTT6=
EXTT7=
EXTT8=
EXTT9=
EXTT10=
EXTT11=
PLAYORDER=
